<?xml version="1.0" encoding="utf-8"?>
<!-- Generator: Adobe Illustrator 26.0.3, SVG Export Plug-In . SVG Version: 6.00 Build 0)  -->
<svg version="1.1" id="Layer_1" xmlns="http://www.w3.org/2000/svg" xmlns:xlink="http://www.w3.org/1999/xlink" x="0px" y="0px"
	 viewBox="0 0 553.9 475.3" style="enable-background:new 0 0 553.9 475.3;" xml:space="preserve">
<style type="text/css">
	.st0{fill:#D0CAB2;}
	.st1{fill:#FFFFFF;}
</style>
<rect y="0" class="st0" width="553.9" height="475.3"/>
<g>
	<g>
		<path class="st1" d="M199.2,124.8c22.2-6.6,41.2-21.6,64.2-25.9c5.5-1.1,11.3-1.4,16.9-0.7c5.5,0.7,10.7,2.6,15.5,5.2
			c5.4,2.9,10.5,6.2,15.7,9.4c5.4,3.3,10.8,6.6,16.1,10c1.3,0.8,2.5,1.7,4.1,1.8c1.6,0.1,3-0.8,4.1-1.8c2.1-2,4-4.3,5.7-6.7
			c1.7-2.5,3.5-5.2,2-8.2c-1.1-2.2-3.5-3.8-5.4-5.3c-8.5-6.8-18-12.1-28.1-16c-10.1-3.8-20.8-6-31.5-6.5
			c-12.2-0.6-24.4,1.4-36.4,3.3c-6.1,0.9-12.2,2.1-18.2,3.8c-5.8,1.7-11.5,3.7-17.2,6c-2.8,1.1-5.6,2.3-8.5,3.5
			c-2.6,1.1-5.5,2-7.8,3.7c-2.5,1.9-3.1,4.5-3.3,7.5c-0.2,3.1-0.3,6.1-0.4,9.2c-0.1,3.1,0,6.2,0.1,9.2c0,1.6,1.6,2.9,3.2,2.4
			c3.4-1.1,6.8-2.2,10.2-3.3c3.1-1,1.7-5.8-1.3-4.8c-3.4,1.1-6.8,2.2-10.2,3.3c1.1,0.8,2.1,1.6,3.2,2.4c-0.2-6-0.1-12,0.3-18
			c0.1-1,0.1-2.1,0.5-3.1c0.5-1,1.6-1.4,2.5-1.9c2.6-1.2,5.2-2.3,7.8-3.4c10.7-4.5,21.6-8.5,33-10.6c5.9-1.1,11.9-1.9,17.9-2.8
			c5.8-0.8,11.7-1.5,17.6-1.6c10.2-0.3,20.4,1.1,30.2,4c9.7,2.9,19,7.2,27.3,12.9c2.1,1.4,4.1,2.9,6,4.4c1,0.8,1.9,1.6,2.9,2.4
			c0.4,0.3,0.8,0.6,1,1c0.1,0.1,0.2,0.2,0.3,0.4c0.1,0.2,0.1,0.5,0.1,0.2c0,1-1.3,2.4-1.9,3.3c-0.8,1.2-1.7,2.3-2.6,3.3
			c-0.8,0.9-1.6,1.7-2.5,2.6c-0.2,0.2-0.6,0.2-0.2,0.2c0.2,0,0.4,0.2-0.1-0.1c-0.6-0.5-1.4-0.8-2-1.2c-5.2-3.2-10.5-6.5-15.7-9.7
			c-5-3.1-9.8-6.2-14.9-9c-4.9-2.7-10.1-4.8-15.6-5.8c-5.4-1-10.8-1.1-16.2-0.4c-11.1,1.3-21.6,5.3-31.7,10
			c-10,4.7-19.8,10.2-30.1,14.1c-2.5,1-5.1,1.8-7.7,2.6C194.8,120.8,196.2,125.7,199.2,124.8L199.2,124.8z"/>
	</g>
</g>
<g>
	<g>
		<path class="st1" d="M197.5,96.9c1.3-13.7,5.4-27.1,13.2-38.5c4.2-6.1,9.6-10.8,16.4-13.9c2-0.9,4.2-1.6,6.4-2.2
			c0.8-0.2,1.6-0.4,2.4-0.6c0.5-0.1,1-0.2,1.5-0.3c0.1,0,0.3,0,0.4-0.1c0,0-0.5,0.1-0.2,0c0.2,0,0.5-0.1,0.8-0.1
			c3.6-0.3,7.2,0.4,10.9,0.7c6.9,0.5,13.7,0.1,20.6-0.5c5.9-0.5,12-0.2,17.8,1.4c1.9,0.5,3.7,1.2,5.4,2.2c0.9,0.5,1.7,1,2.5,1.5
			c0.3,0.2,0.6,0.4,0.9,0.6c0.2,0.2,0,0-0.1-0.1c0.1,0.1,0.2,0.2,0.4,0.3c1.5,1.3,2.6,2.8,4,4.2c2.7,2.7,5.7,4.9,8.7,7.2
			c1.4,1.1,2.9,2.3,4,3.8c1.2,1.6,2,3.4,2.7,5.2c2.5,7.1,4.5,14.5,6.5,21.8c0.6,2.2,1.2,4.3,1.8,6.5c0.8,3.1,5.7,1.8,4.8-1.3
			c-2.2-8-4.4-16-6.8-24c-1.2-4-2.5-8.1-5.1-11.4c-2.4-3.1-5.8-5.2-8.9-7.6c-2.5-1.9-4.6-4.3-6.7-6.6c-1.7-1.9-3.9-3.4-6.2-4.6
			c-6.3-3.4-14.1-4.5-21.3-4.4c-3,0-6,0.4-9,0.6c-4,0.3-8,0.4-12.1,0.3c-4.2-0.1-8.4-1-12.6-1c-4,0-8.1,1-11.9,2.3
			c-7.1,2.5-13.6,6.7-18.4,12.5C200.2,62.7,195,77.4,193,92.4c-0.2,1.5-0.4,2.9-0.5,4.4c-0.1,1.3,1.2,2.5,2.5,2.5
			C196.4,99.4,197.3,98.2,197.5,96.9L197.5,96.9z"/>
	</g>
</g>
<g>
	<g>
		<path class="st1" d="M167.8,136c24.2,1.9,48.4-1.6,72.7-2.4c3.1-0.1,6.2-0.1,9.3-0.1c1.5,0,2.9,0,4.4,0.1c0.9,0,2.5-0.2,3.2,0.4
			c0.6,0.5,0.8,1.7,1,2.4c0.5,1.5,0.9,3.1,1.3,4.6c0.8,2.9,1.6,5.9,2.3,8.9c0.7,2.8,1.3,5.6,1.9,8.5c0.6,3,1.4,6,1.7,9
			c0,0.2,0,0.7,0,0.9c-0.2-0.4,0.7-0.1,0.1-0.2c-0.2,0-0.7,0.1-0.9,0.2c-1.5,0.2-3.1,0.4-4.7,0.7c-3,0.4-6.1,0.9-9.1,1.3
			c-13.8,2-27.5,3.9-41.3,5.9c-1.3,0.2-2.1,1.9-1.8,3.1c0.4,1.4,1.7,1.9,3.1,1.8c12.9-1.9,25.9-3.7,38.8-5.6
			c3.3-0.5,6.5-0.9,9.8-1.4c1.5-0.2,3-0.4,4.4-0.6c1.6-0.2,3.2-0.3,4.6-1.2c2.8-2,1.7-5.6,1.2-8.4c-0.6-3.2-1.2-6.3-1.9-9.4
			c-1.3-6.1-2.9-12.2-4.6-18.2c-0.8-2.8-1.7-5.8-4.8-6.9c-1.3-0.4-2.7-0.4-4.1-0.5c-1.7-0.1-3.4-0.1-5.1-0.1
			c-12.8-0.1-25.6,0.9-38.3,1.8c-14.4,1-28.9,1.8-43.4,0.6c-1.4-0.1-2.5,1.2-2.5,2.5C165.3,135,166.5,135.9,167.8,136L167.8,136z"/>
	</g>
</g>
<g>
	<g>
		<path class="st1" d="M134.5,157.9c12.4,0.9,25-0.2,37.1-3.1c5.4-1.3,11.2-4,16.8-2.5c5.1,1.3,9.2,5.1,13.1,8.4
			c2.8,2.3,5.5,4.6,8.3,6.9c1.4,1.1,2.8,2.3,4.1,3.4c0.4,0.4,2.4,1.7,2.2,2.3c0.6-0.6,1.2-1.2,1.8-1.8c-10.3,2.2-20.1-4.4-28.2-9.9
			c-0.8,1.4-1.7,2.9-2.5,4.3c6.2,4.2,12.5,8.3,18.7,12.5c0-1.4,0-2.9,0-4.3c-8,6.1-19,2.7-26.3-2.8c-0.8,1.4-1.7,2.9-2.5,4.3
			c6.9,3.2,13.4,7.1,19.5,11.7c-0.2-1.3-0.3-2.6-0.5-3.9c-3.8,3-9.6,1.5-13.4-0.5c-5.3-2.6-9.9-6.4-15.7-8c-2.1-0.6-3.9,1.8-2.8,3.7
			c3,5.1,8.3,7.8,12.5,11.6c1.9,1.7,3.3,3.4,3.8,5.8c0.8,3.3-1.5,7.2-3.2,10.2c-2.4,4.4-4.9,8.6-7.5,12.9c-1.7,2.7,2.6,5.2,4.3,2.5
			c2.5-3.9,4.8-7.9,7.1-12c2.1-3.8,4.5-7.9,4.4-12.4c-0.1-6.8-5.6-10.9-10.5-14.6c-2.5-1.9-5.1-3.9-6.7-6.6
			c-0.9,1.2-1.9,2.4-2.8,3.7c6.1,1.7,11,6.2,16.8,8.6c5.6,2.3,12.2,2.6,17.1-1.4c1.4-1.1,0.6-3.1-0.5-3.9
			c-6.1-4.6-12.6-8.5-19.5-11.7c-2.9-1.4-5.1,2.4-2.5,4.3c8.6,6.5,22.1,9.8,31.4,2.8c1.5-1.1,1.7-3.2,0-4.3
			c-6.2-4.2-12.5-8.3-18.7-12.5c-2.7-1.8-5.2,2.5-2.5,4.3c9.4,6.4,20.2,12.9,32.1,10.4c0.9-0.2,1.5-0.9,1.8-1.8
			c1-3.5-1.9-5.9-4.2-7.8c-2.6-2.2-5.3-4.4-7.9-6.6c-4.6-3.8-9.2-8.2-14.5-11c-2.7-1.4-5.7-2.3-8.7-2.4c-3.3-0.1-6.6,0.8-9.8,1.7
			c-6.2,1.7-12.5,3.1-18.9,3.8c-7.4,0.9-14.9,1-22.3,0.5c-1.4-0.1-2.5,1.2-2.5,2.5C132,156.9,133.1,157.8,134.5,157.9L134.5,157.9z"
			/>
	</g>
</g>
<g>
	<g>
		<path class="st1" d="M150,151.1c0.5-4.5,1.6-9,3.9-12.9c2.1-3.6,5.1-6.5,8.6-8.6c8.2-5,18-5.5,27.3-4.6c2.2,0.2,4.7,0.4,6.7,1.6
			c1.1,0.7,2.2,2.5,1.3,3.4c-2.1,2.4,1.4,5.9,3.5,3.5c1.8-2,2.1-4.7,1.1-7.2c-1.1-2.6-3.2-4.2-5.9-5.1c-2.6-0.9-5.5-1.1-8.2-1.3
			c-2.9-0.2-5.9-0.3-8.9-0.2c-10.8,0.6-21.8,4.5-28.4,13.5c-3.8,5.2-5.4,11.6-6.1,17.9c-0.1,1.3,1.2,2.5,2.5,2.5
			C149,153.6,149.9,152.4,150,151.1L150,151.1z"/>
	</g>
</g>
<g>
	<g>
		<path class="st1" d="M131,155.4c0.9,5.9,0,11.9-0.5,17.9c-0.5,6.1-0.5,12.1,1.4,17.9c1.9,5.6,5,10.6,6.9,16.2
			c1.7,5.1,2.2,10.4,1.6,15.7c-0.6,5.9-2.8,11.6-6.1,16.4c-1.8,2.7,2.5,5.2,4.3,2.5c6.4-9.4,8.6-21.6,6-32.7
			c-1.4-5.9-4.4-11.1-6.7-16.6c-1.1-2.7-2-5.5-2.4-8.4c-0.4-3-0.3-6.1-0.1-9.2c0.5-7.1,1.6-14.1,0.5-21.2c-0.2-1.3-1.9-2.1-3.1-1.8
			C131.4,152.7,130.8,154,131,155.4L131,155.4z"/>
	</g>
</g>
<g>
	<g>
		<path class="st1" d="M137.1,243c4.2-0.1,8.3,0,12.5,0.4c0.1,0,1.7,0.1,1.7,0.2c-0.3-0.3-0.5-0.5-0.8-0.8c-0.1-0.1-0.1,0,0,0.5
			c0,1,0.1,1.9,0.1,2.9c0.1,2.1,0.1,4.2,0.1,6.4c-0.1,8.3-0.8,16.5-2.2,24.6c-0.2,1.3,0.4,2.7,1.8,3.1c1.2,0.3,2.8-0.4,3.1-1.8
			c1.6-9.4,2.5-18.9,2.4-28.4c0-2.3-0.1-4.6-0.2-6.9c-0.1-1.1-0.1-2.3-0.9-3.2c-0.9-1-2-1.3-3.3-1.5c-4.7-0.5-9.5-0.6-14.2-0.5
			C133.9,238.1,133.9,243.1,137.1,243L137.1,243z"/>
	</g>
</g>
<g>
	<g>
		<path class="st1" d="M154.9,240.9c7.4-7.3,16.5-12.8,26.4-15.7c1.2-0.4,2.5-0.7,3.8-1c0.3-0.1,1.5-0.2,1.6-0.3c0,0,0,0,0.1,0
			c0.1-0.1,0.1-0.1-0.2-0.2c-0.2-0.2-0.3-0.2-0.2-0.1c0.1,0.2,0.1,0.4,0.2,0.6c1.1,3,2.1,6,3.1,9.1c2,5.9,4.1,11.8,6.1,17.7
			c2.2,6.3,4.8,12.8,4.2,19.5c-0.1,1.4,1.2,2.5,2.5,2.5c1.4,0,2.4-1.1,2.5-2.5c0.6-6.7-1.7-13.2-3.9-19.5c-2.3-6.5-4.5-13-6.8-19.5
			c-1.1-3.1-2.1-6.3-3.2-9.3c-0.6-1.4-1.5-2.6-3-3c-1.5-0.4-3.2,0.1-4.7,0.5c-5.7,1.4-11.2,3.5-16.3,6.3
			c-5.8,3.1-11.1,7.1-15.7,11.6C149.1,239.6,152.6,243.2,154.9,240.9L154.9,240.9z"/>
	</g>
</g>
<g>
	<g>
		<path class="st1" d="M191,219.6c-0.5-5.5-1.1-11.6,1.4-16.7c1.3-2.7,3-5.1,4.1-8c1-2.7,1.7-5.6,2.9-8.2c0.6-1.2,0.4-2.7-0.9-3.4
			c-1.1-0.6-2.9-0.3-3.4,0.9c-1.3,2.9-2.1,5.9-3.2,8.8c-1.1,2.9-3,5.3-4.2,8.2c-2.5,5.9-2.2,12.3-1.7,18.5c0.1,1.4,1.1,2.5,2.5,2.5
			C189.8,222.1,191.1,220.9,191,219.6L191,219.6z"/>
	</g>
</g>
<g>
	<g>
		<path class="st1" d="M299.6,160c-6.5-12.7-16.5-23.4-22.1-36.6c-0.7-1.6-1.3-3.3-1.8-5c-0.2-0.6-0.7-1.8-0.5-2.3
			c0.1-0.3,0.7-0.7,1.1-0.9c2.6-1.3,5.9-0.2,8,1.4c2.7,2,4.4,5.2,5.9,8.2c1.8,3.5,3.5,7,5.4,10.4c4.4,7.8,9.5,15.2,15.2,22.1
			c0.9,1,2.6,0.9,3.5,0c1-1,0.9-2.5,0-3.5c-5.4-6.6-10.3-13.6-14.5-21.1c-2-3.6-3.8-7.3-5.6-10.9c-1.8-3.6-4.1-7-7.4-9.4
			c-3-2.2-7.1-3.3-10.8-2.3c-1.9,0.5-3.7,1.5-4.8,3.1c-1.4,1.9-1.1,4.1-0.5,6.3c2.2,7.5,6.2,14.4,10.4,20.9
			c4.8,7.3,10.1,14.4,14.1,22.2C296.8,165.4,301.1,162.9,299.6,160L299.6,160z"/>
	</g>
</g>
<g>
	<g>
		<path class="st1" d="M271,170.2c11.2,0,21.9-3.5,32.5-6.7c5.3-1.6,10.7-3.1,16.2-4.1c0.9-0.2,2.2-0.6,3.1-0.4
			c0.8,0.1,1,1.1,1.2,1.8c0.9,2.6,1.5,5.2,2.6,7.7c2.1,4.8,6.2,7.5,10.3,10.4c3.8,2.7,6.6,6.2,9.1,10.1c2.6,4.1,4.7,8.3,7.4,12.3
			c2.9,4.5,6.5,8.2,10.5,11.7c4.5,4.1,8.5,8.4,11.8,13.6c3.3,5.1,6,10.5,8.7,15.8c0.5-1.2,1-2.4,1.5-3.7c-13.4,4.6-26,11-37.6,19.1
			c1.2,0.5,2.5,1,3.7,1.5c-4.3-11.5-10.5-22.1-18.5-31.4c-4-4.7-8.8-8.6-12.9-13.2c-3.7-4.1-6.1-9-7-14.5c-0.9-5.9,0.1-12,3-17.2
			c1-1.7-0.3-3.6-2.2-3.8c-4.9-0.4-9.8,1.6-13.2,5c-1.8,1.8-4,4.5-2.5,7.1c0.7,1.2,2.1,1.8,3.3,2.4c1.3,0.7,2.6,1.3,3.9,2
			c2.9,1.5,5.4-2.9,2.5-4.3c-1-0.5-1.9-1-2.9-1.5c-0.7-0.4-1.7-1.2-2.5-1.3c-0.6-0.4-0.6-0.1,0.1,1.1c0.1-0.2,0.3-0.4,0.4-0.6
			c0.2-0.2,0.4-0.5,0.5-0.7c0.5-0.6,1.1-1.1,1.7-1.6c2.5-1.9,5.6-2.8,8.7-2.6c-0.7-1.2-1.4-2.5-2.2-3.8c-5.7,10.2-5.3,23.5,1.2,33.3
			c3.5,5.3,8.7,9.3,13,13.9c4.2,4.4,8,9.2,11.3,14.4c3.8,5.8,6.9,12.1,9.3,18.6c0.5,1.4,2.2,2.5,3.7,1.5
			c11.2-7.9,23.5-14.1,36.4-18.6c1.6-0.6,2.2-2.2,1.5-3.7c-4.9-9.8-10-19.7-18-27.4c-3.9-3.8-8.3-7.1-11.5-11.5
			c-2.9-4-5.1-8.4-7.7-12.6c-2.5-4.2-5.4-8.4-9.2-11.6c-3.6-3-8.4-5.2-10.7-9.4c-1.2-2.2-1.8-4.8-2.5-7.2c-0.9-2.6-2-5.3-5-6.1
			c-1.4-0.3-2.7-0.1-4.1,0.1c-1.4,0.2-2.8,0.4-4.2,0.7c-2.8,0.6-5.5,1.3-8.2,2c-12.1,3.4-24,8.1-36.7,8.1
			C267.8,165.2,267.8,170.2,271,170.2L271,170.2z"/>
	</g>
</g>
<g>
	<g>
		<path class="st1" d="M260.5,172.7c0.4,1.9-0.1,3.9-0.2,5.8c-0.1,2.2,0.3,4.4,1.6,6.1c1.4,1.9,3.4,3.3,5.2,4.7
			c1.9,1.4,3.9,2.8,6,3.9c2,1.1,4.8,1.5,6.3-0.7c1.4-2.1,0.8-4.8,0.2-7c-0.4-1.6-0.6-3,0.5-4.4c1.1-1.3,2.7-2.1,4.2-2.8
			c4.9-2.4,10-4.5,15.1-6.5c1.2-0.5,2.1-1.7,1.8-3.1c-0.4-1.3-1.8-2.1-3.1-1.8c-5,1.4-9.5,4.1-13.1,7.8c-3.6,3.8-7.1,9.2-7,14.7
			c0.1,5.9,5,9.1,10,11c1.1,0.4,2.4,1,3.6,1c1.8,0,3.3-1.2,3.6-3c0.3-1.2,0-2.6,0.2-3.8c0.2-1.2,0.5-2.5,1-3.7
			c2.4-5.4,7.9-8.5,13.7-8.2c3.2,0.2,3.2-4.8,0-5c-5.4-0.3-10.9,1.8-14.6,5.7c-1.9,2-3.3,4.3-4.2,6.9c-0.5,1.3-0.7,2.6-0.9,4
			c-0.1,0.7-0.1,1.3-0.1,2c0,0.5,0.1,1-0.1,1.5c0.2-0.4,0.4-0.7,0.6-1.1c0.9-0.1,1.1-0.2,0.5-0.3c-0.2-0.1-0.5-0.1-0.7-0.2
			c-0.3-0.1-0.7-0.2-1-0.4c-0.7-0.2-1.4-0.5-2.1-0.9c-1.3-0.6-2.5-1.3-3.4-2.4c-2.2-2.6-0.8-6.4,0.6-9c3.1-5.7,8.5-10,14.7-11.7
			c-0.4-1.6-0.9-3.2-1.3-4.8c-4.3,1.7-8.6,3.5-12.8,5.4c-3.4,1.5-7.1,3-9.4,6.1c-1.1,1.6-1.7,3.5-1.6,5.4c0.1,1.1,0.3,2.1,0.6,3.2
			c0,0.1,0.6,2.9,0.4,2.9c0,0,1-0.8,0.9-0.7c0.1-0.2,0.4,0.2-0.2-0.1c-0.4-0.2-0.8-0.4-1.1-0.6c-0.9-0.6-1.8-1.1-2.7-1.7
			c-1.8-1.2-3.5-2.5-5-3.9c-1.5-1.4-1.8-2.7-1.7-4.7c0.1-2.3,0.5-4.5,0-6.8c-0.3-1.3-1.8-2.1-3.1-1.8
			C260.9,170,260.3,171.4,260.5,172.7L260.5,172.7z"/>
	</g>
</g>
<g>
	<g>
		<path class="st1" d="M330.7,122.6c0,4.9,1.5,9.6,3.1,14.2c1.5,4.4,2.9,8.8,4,13.3c2.1,8.9,3,18.2,0,27c-1,3.1,3.8,4.4,4.8,1.3
			c3.1-9.2,2.4-19,0.3-28.3c-1.1-4.7-2.5-9.2-4-13.8c-1.5-4.4-3.2-8.9-3.2-13.7C335.7,119.4,330.7,119.4,330.7,122.6L330.7,122.6z"
			/>
	</g>
</g>
<g>
	<g>
		<path class="st1" d="M245.5,220.4c9.7,3.9,19.5,7.9,29.2,11.8c4.6,1.8,9.5,4.6,14.5,2.5c2.3-0.9,4.3-2.5,6.4-3.8
			c2.2-1.5,4.4-2.9,6.6-4.4c4.9-3.3,9.9-6.6,14.8-9.9c2.7-1.8,0.2-6.1-2.5-4.3c-4.3,2.8-8.5,5.7-12.8,8.5c-4.1,2.8-8.2,5.6-12.4,8.2
			c-1.8,1.1-3.5,1.8-5.6,1.2c-2.4-0.6-4.6-1.7-6.9-2.6c-4.6-1.9-9.3-3.7-13.9-5.6c-5.3-2.1-10.6-4.3-16-6.5
			c-1.2-0.5-2.8,0.6-3.1,1.8C243.4,218.8,244.3,219.9,245.5,220.4L245.5,220.4z"/>
	</g>
</g>
<g>
	<g>
		<path class="st1" d="M361.7,206.2c8.5-0.5,17.1-0.4,25.6,0.1c4.2,0.3,8.4,0.7,12.5,1.2c3.3,0.4,6.9,0.8,10,2.2
			c6.9,3,7.5,11.5,9,17.9c1.9,8.4,3.8,16.9,5.7,25.3c2.2,9.6,4.3,19.1,6.5,28.7c0.7,3.1,5.5,1.8,4.8-1.3c-4-17.6-8-35.2-12-52.8
			c-1.7-7.3-2.5-16.2-9.2-20.8c-2.9-2.1-6.6-2.9-10-3.5c-4.4-0.7-8.8-1.2-13.1-1.6c-9.9-0.9-19.8-1-29.7-0.5
			C358.5,201.4,358.5,206.4,361.7,206.2L361.7,206.2z"/>
	</g>
</g>
<g>
	<g>
		<path class="st1" d="M151.8,264.8c4.1,0.1,7.9-1.5,11.6-2.9c3.9-1.4,7.8-2.9,11.7-4.4c7.8-3,15.6-6.1,23.2-9.4
			c1.2-0.5,1.5-2.4,0.9-3.4c-0.8-1.3-2.2-1.4-3.4-0.9c-7.3,3.1-14.6,6.1-22.1,8.9c-3.6,1.4-7.3,2.8-11,4.1c-3.5,1.3-7.2,3-11,2.9
			C148.6,259.7,148.6,264.7,151.8,264.8L151.8,264.8z"/>
	</g>
</g>
<g>
	<g>
		<path class="st1" d="M132.2,241.2c-4.4,13-8.6,26.1-12.7,39.2c-3.9,12.6-7.8,25.4-10.3,38.3c-2.5,12.7-4.3,26.2-2.6,39.1
			c1.8,13.1,9.2,24.4,15.3,35.8c1.4,2.6,2.7,5.5,4.5,7.9c1.9,2.5,4.6,3.6,7.8,3.3c6.4-0.6,12.8-2,18.7-4.5c5.9-2.5,11.1-6,16.3-9.7
			c4.9-3.5,9.8-7,14.4-10.9c4.6-3.9,8.7-8.3,12-13.3c3.2-4.8,5.6-10.1,7.5-15.5c3.7-10.9,5.2-22.4,6.3-33.8
			c2.2-23.2,1.9-47.6-7.9-69.2c-1.2-2.5-2.5-5-3.9-7.4c-1.6-2.8-6-0.3-4.3,2.5c11.5,19.5,13.2,42.7,11.8,64.8
			c-0.7,11-1.8,22.1-4.3,32.8c-2.5,10.5-6.6,20.8-13.9,28.9c-3.8,4.2-8.2,7.9-12.8,11.4c-4.7,3.5-9.5,7-14.5,10.2
			c-5.1,3.3-10.6,5.7-16.5,7.1c-2.9,0.7-5.9,1.3-8.8,1.6c-1,0.1-2.2,0.2-3-0.5c-0.8-0.6-1.4-1.7-1.9-2.6c-3.1-5.6-6.1-11.2-9.2-16.8
			c-2.9-5.3-5.7-10.6-7.4-16.5c-1.7-6-2-12.3-1.8-18.6c0.2-6.3,0.8-12.5,1.9-18.7c2.1-12.5,5.5-24.8,9.2-37
			c3.8-12.4,7.7-24.8,11.8-37.2c1-3.1,2.1-6.3,3.1-9.4C138.1,239.5,133.3,238.2,132.2,241.2L132.2,241.2z"/>
	</g>
</g>
<g>
	<g>
		<path class="st1" d="M347.4,259.2c0,12,3.8,23.9,10.9,33.5c0.7,1,2.2,1.8,3.4,0.9c7-5.1,14-10.3,21-15.4c3.5-2.6,7-5.2,10.6-7.8
			c1.5-1.1,3.1-2.3,3.5-4.3c0.4-2.1-0.8-4.1-1.7-6c-2-4.2-4.3-8.2-6.8-12.1c-1.1,1.1-2.3,2.3-3.4,3.4c4.9,3.4,9.7,7,14.7,10.4
			c2.3,1.6,4.9,2.2,7.7,1.6c2.7-0.6,5-2.4,7.1-4.1c2.1-1.6,3.7-4,2.7-6.7c-1-2.6-3.8-3.9-6-5.2c-5-3.1-9.9-6.4-15-9.3
			c-2.5-1.4-5.5-2.7-8.5-2.4c-2.9,0.2-5.5,1.5-7.1,3.9c-0.8,1.1-0.2,2.8,0.9,3.4c1.2,0.7,2.6,0.2,3.4-0.9c2-2.9,6.5-1,8.8,0.3
			c4.1,2.3,8.1,5,12.1,7.5c2,1.2,4.1,2.4,6,3.8c0.1,0.1,0.7,0.5,0.8,0.7c0,0.4-1.4,1.4-1.7,1.6c-1.4,1.1-3.1,2.4-5,2.7
			c-1.9,0.3-3.4-1-4.9-2c-4.5-3.2-9-6.3-13.4-9.5c-2.1-1.4-4.7,1.4-3.4,3.4c2.6,4,5,8.2,7,12.5c0.2,0.5,0.5,1,0.7,1.4
			c0.1,0.3,0.2,0.5,0.2,0.8c0-0.1,0-0.1,0-0.1c-0.2,0.6-1.4,1.1-1.8,1.5c-2.1,1.5-4.1,3-6.2,4.5c-8.2,6-16.4,12-24.5,18.1
			c1.1,0.3,2.3,0.6,3.4,0.9c-6.6-9-10.2-19.8-10.2-31C352.4,256,347.4,255.9,347.4,259.2L347.4,259.2z"/>
	</g>
</g>
<g>
	<g>
		<path class="st1" d="M412.9,258.5c12.4,16.8,26.4,32.1,41.8,46.3c3.6,3.3,7.3,6.8,8.7,11.6c0.9,3.1,5.7,1.8,4.8-1.3
			c-1.3-4.6-4.3-8.3-7.6-11.6c-3.6-3.5-7.4-6.8-11-10.4c-7.5-7.4-14.7-15.1-21.4-23.2c-3.8-4.5-7.4-9.1-10.9-13.9
			c-0.8-1.1-2.2-1.6-3.4-0.9C412.7,255.7,412.1,257.4,412.9,258.5L412.9,258.5z"/>
	</g>
</g>
<g>
	<g>
		<path class="st1" d="M358.7,289.6c1,14.7,4.1,29.6,10.6,42.9c4,8.4,9.7,15.6,16.2,22.1c6.5,6.5,13.6,12.4,21.2,17.6
			c8,5.5,16.1,11.3,25.2,15c4.1,1.6,8.2,2.6,12.6,2.8c5,0.3,10.4,0.3,15.4-0.8c7.3-1.7,14-6.4,16.6-13.5c1.6-4.3,2.4-9,3.4-13.5
			c0.9-4.1,1.8-8.3,2.5-12.5c1.2-7,1.3-14.4,0.4-21.4c-0.6-4.3-1.7-8.7-3.9-12.5c-2.5-4.3-6.4-7.5-11-9.3c-1.9-0.8-3.9-1.2-5.9-1.5
			c-1.3-0.2-2.7,0.3-3.1,1.8c-0.3,1.2,0.4,2.9,1.8,3.1c4.2,0.6,8.2,2.1,11.3,5.2c2.7,2.7,4.2,6.1,5.1,9.8c0.9,3.8,1.2,7.7,1.2,11.6
			c0,3.1,0,6.2-0.3,9.3c0,0.3-0.1,0.6-0.1,0.9c0.1-0.5-0.1,0.5-0.1,0.6c-0.1,0.8-0.3,1.7-0.4,2.5c-0.3,1.8-0.7,3.6-1.1,5.4
			c-1,4.9-2,9.9-3.3,14.7c-0.4,1.6-0.9,3.2-1.5,4.8c0,0.1-0.1,0.3-0.2,0.4c0.2-0.5,0,0,0,0.1c-0.1,0.2-0.2,0.5-0.4,0.7
			c-0.3,0.5-0.6,1-0.9,1.5c-0.1,0.1-0.1,0.2-0.2,0.3c0,0,0.4-0.4,0.1-0.1c-0.1,0.2-0.3,0.4-0.4,0.5c-0.8,0.9-1.6,1.7-2.6,2.5
			c-1.5,1.2-3.3,2.2-5.1,2.9c-4.1,1.6-7.5,1.7-12,1.8c-2.8,0-5.7,0-8.5-0.4c0.6,0.1-0.4-0.1-0.5-0.1c-0.4-0.1-0.8-0.2-1.3-0.3
			c-1.3-0.3-2.6-0.7-3.8-1.1c-8.5-2.8-16-8.2-23.3-13.2c-6.8-4.6-13.3-9.5-19.3-15.1c-6.6-6.1-12.6-12.5-17.1-20.3
			c-4.2-7.3-7-15.2-9-23.4c-0.9-3.5-1.6-7.1-2.1-10.7c-0.4-2.6-0.7-5-1-8c-0.1-1-0.2-2-0.2-3.1c-0.1-1.4-1.1-2.5-2.5-2.5
			C359.9,287.1,358.6,288.2,358.7,289.6L358.7,289.6z"/>
	</g>
</g>
<g>
	<g>
		<path class="st1" d="M282.4,234.5c-2.3,31.6,0.1,63.2,3.4,94.6c3.3,31.5,7.4,63,8.6,94.7c0.3,8.8,0.2,17.6,0.4,26.4
			c0.2,8.7,0.8,17.4,3.1,25.9c0.8,3.1,5.7,1.8,4.8-1.3c-4-15-2.8-30.8-3.2-46.1c-0.4-15.7-1.6-31.3-3.2-46.9
			c-3-31.4-7.3-62.6-9.1-94.1c-1-17.7-1.2-35.4,0.1-53.1c0.1-1.4-1.2-2.5-2.5-2.5C283.4,232,282.5,233.1,282.4,234.5L282.4,234.5z"
			/>
	</g>
</g>
<g>
	<g>
		<path class="st1" d="M419.2,475.3c0.1-14,0.3-28,0.5-41.9c0.1-6.7,0.3-13.4-0.1-20.1c-0.4-6.8-1.6-13.4-3-20
			c-1.5-7.2-3-14.3-2.7-21.7c0.1-3.2-4.9-3.2-5,0c-0.6,13.4,4.5,26.1,5.5,39.3c0.5,6.7,0.3,13.4,0.3,20.1c-0.1,7-0.1,14-0.2,21
			c-0.1,7.8-0.2,15.6-0.2,23.5C414.1,478.5,419.1,478.5,419.2,475.3L419.2,475.3z"/>
	</g>
</g>
<g>
	<g>
		<path class="st1" d="M139.9,475.3c-0.6-9.6-1.2-19.3-0.1-28.9c0.5-4.7,1.5-9.4,3-13.9c1.5-4.5,3.5-8.9,4.9-13.5
			c1.6-5.4,2.2-11,1.9-16.6c-0.2-3.2-5.2-3.2-5,0c0.3,4.9-0.2,9.7-1.5,14.4c-1.2,4.6-3.2,9-4.8,13.6c-3.2,9.2-4.1,18.9-4.1,28.6
			c0,5.5,0.4,10.9,0.7,16.4C135.1,478.5,140.1,478.5,139.9,475.3L139.9,475.3z"/>
	</g>
</g>
<g>
	<g>
		<path class="st1" d="M294.1,121.1c3.2,0,3.2-5,0-5C290.9,116.1,290.9,121.1,294.1,121.1L294.1,121.1z"/>
	</g>
</g>
<g>
	<g>
		<path class="st1" d="M294.8,121.3c6.6-1.3,13.4-1.5,20-0.6c1.3,0.2,2.7-0.3,3.1-1.8c0.3-1.2-0.4-2.9-1.8-3.1
			c-7.6-1.1-15.2-0.9-22.7,0.6c-1.3,0.3-2.1,1.8-1.8,3.1C292.1,120.9,293.5,121.5,294.8,121.3L294.8,121.3z"/>
	</g>
</g>
<g>
	<g>
		<path class="st1" d="M261.2,118.9c-13-0.8-26.1,0.2-38.9,2.8c-1.3,0.3-2.1,1.8-1.8,3.1c0.4,1.4,1.8,2,3.1,1.8
			c12.3-2.5,25-3.4,37.5-2.6C264.4,124.1,264.4,119.1,261.2,118.9L261.2,118.9z"/>
	</g>
</g>
<g>
	<g>
		<path class="st1" d="M283,207.8c2.6,0.3,5.2,0.1,7.8-0.4c0.6-0.1,1.2-0.6,1.5-1.1c0.3-0.5,0.5-1.3,0.2-1.9
			c-0.2-0.6-0.6-1.2-1.1-1.5c-0.6-0.3-1.2-0.4-1.9-0.2c-0.5,0.1-0.9,0.2-1.4,0.2c0.2,0,0.4-0.1,0.7-0.1c-1.9,0.2-3.9,0.3-5.8,0.1
			c-0.6-0.1-1.4,0.3-1.8,0.7c-0.4,0.4-0.8,1.1-0.7,1.8c0,0.6,0.2,1.3,0.7,1.8C281.8,207.6,282.3,207.8,283,207.8L283,207.8z"/>
	</g>
</g>
<g>
	<g>
		<path class="st1" d="M229.3,142.1c-3.7,2.9-7.6,6.1-9.6,10.5c-1.8,4.1-2.1,9.3,0.8,13.1c3,4,8.8,5.6,13.6,6.2
			c5.1,0.7,10.4,0.1,14.8-2.6c3.8-2.4,6.9-6.2,7.6-10.7c0.7-4.4-0.6-8.7-3.3-12.2c-5.6-7.4-16.6-11.9-25.5-8.2
			c-8.5,3.5-13.6,13.7-10.6,22.5c1,3,5.9,1.7,4.8-1.3c-1.8-5.5,0.5-12,5.3-15.3c6-4.1,14.6-1.9,19.7,2.8c2.3,2.1,4.2,4.9,4.7,8
			c0.5,3.3-0.9,6.4-3.3,8.6c-2.7,2.5-6.3,3.6-9.9,3.7c-3.9,0.1-8.5-0.8-11.9-2.8c-3.4-2-3.7-6.1-2.2-9.5c1.7-3.9,5.5-6.7,8.7-9.2
			c1.1-0.8,0.9-2.7,0-3.5C231.8,141.1,230.4,141.3,229.3,142.1L229.3,142.1z"/>
	</g>
</g>
<g>
	<g>
		<path class="st1" d="M163.8,134.6c0,5.6,0,11.2,0,16.8c0,1.4,1.1,2.5,2.5,2.5c1.4,0,2.5-1.1,2.5-2.5c0-5.6,0-11.2,0-16.8
			c0-1.4-1.1-2.5-2.5-2.5S163.8,133.2,163.8,134.6L163.8,134.6z"/>
	</g>
</g>
<g>
	<g>
		<path class="st1" d="M150.4,261.1c-6.9-0.9-13.5-3.4-19.2-7.2c-1.1-0.7-2.8-0.2-3.4,0.9c-0.7,1.2-0.2,2.7,0.9,3.4
			c6.6,4.3,14,6.9,21.8,7.9c1.3,0.2,2.5-1.3,2.5-2.5C152.9,262.1,151.8,261.2,150.4,261.1L150.4,261.1z"/>
	</g>
</g>
<g>
	<g>
		<path class="st1" d="M224.2,54.9c-2.8,8.5-4.6,17.2-5.5,26.1c-0.1,1,0.9,1.9,1.9,1.9c1.1,0,1.8-0.9,1.9-1.9
			c0.9-8.6,2.7-17,5.4-25.2C228.5,53.6,224.9,52.6,224.2,54.9L224.2,54.9z"/>
	</g>
</g>
<g>
	<g>
		<path class="st1" d="M201.1,99.9c-0.4,4.2-0.1,8.4,1,12.4c0.2,0.9,1.4,1.6,2.3,1.3c1-0.3,1.6-1.3,1.3-2.3c-1-3.7-1.2-7.5-0.8-11.4
			c0.1-1-0.9-1.9-1.9-1.9C201.9,98.1,201.2,98.9,201.1,99.9L201.1,99.9z"/>
	</g>
</g>
<g>
	<g>
		<path class="st1" d="M218.7,92c0.2,5.9,2.1,11.8,5.6,16.6c0.6,0.8,1.6,1.2,2.6,0.7c0.8-0.5,1.3-1.8,0.7-2.6
			c-3.2-4.3-5-9.4-5.1-14.7C222.4,89.6,218.6,89.6,218.7,92L218.7,92z"/>
	</g>
</g>
<g>
	<g>
		<path class="st1" d="M241.5,103.9c0-5.6,0-11.2,0-16.8c0-2.4-3.8-2.4-3.8,0c0,5.6,0,11.2,0,16.8
			C237.7,106.3,241.5,106.3,241.5,103.9L241.5,103.9z"/>
	</g>
</g>
<g>
	<g>
		<path class="st1" d="M262.3,94.9c0-3,0-5.9,0-8.9c0-1-0.9-1.9-1.9-1.9c-1,0.1-1.9,0.8-1.9,1.9c0,3,0,5.9,0,8.9
			c0,1,0.9,1.9,1.9,1.9C261.4,96.8,262.3,96,262.3,94.9L262.3,94.9z"/>
	</g>
</g>
<g>
	<g>
		<path class="st1" d="M290,94.9c0.4-3.8,0-7.7-1-11.4c-0.3-0.9-1.3-1.6-2.3-1.3c-1,0.3-1.6,1.3-1.3,2.3c0.5,1.8,0.8,3.4,0.9,5
			c0.1,1.8,0.1,3.6-0.1,5.4c-0.1,1,0.9,1.9,1.9,1.9C289.2,96.8,289.9,96,290,94.9L290,94.9z"/>
	</g>
</g>
<g>
	<g>
		<path class="st1" d="M314.5,110.3c1-6.3,0.5-12.8-1.6-18.9c-0.3-0.9-1.3-1.6-2.3-1.3c-0.9,0.2-1.6,1.3-1.3,2.3
			c1.9,5.4,2.5,11.2,1.6,16.9c-0.2,1,0.3,2,1.3,2.3C313.1,111.8,314.4,111.3,314.5,110.3L314.5,110.3z"/>
	</g>
</g>
<g>
	<g>
		<path class="st1" d="M274.9,41.2c7.6,13.2,14.5,26.8,20.7,40.7c0.4,0.9,1.8,1.1,2.6,0.7c1-0.5,1.1-1.7,0.7-2.6
			c-6.2-13.9-13.2-27.5-20.7-40.7C277,37.2,273.7,39.1,274.9,41.2L274.9,41.2z"/>
	</g>
</g>
<g>
	<g>
		<path class="st1" d="M252.7,48.4c-0.9,11.1-0.2,22.2,2.1,33.1c0.5,2.4,4.1,1.4,3.6-1c-2.2-10.6-2.8-21.4-1.9-32.2
			C256.6,46,252.9,46,252.7,48.4L252.7,48.4z"/>
	</g>
</g>
<g>
	<g>
		<path class="st1" d="M167.2,235.6c-0.7,2.9-1.2,6.1-0.6,9.1c0.6,2.7,2.5,5.1,5.4,5.4c3.1,0.4,6.1-1.8,7.1-4.7
			c1.1-3.2-0.4-6.8-2.9-8.9c-3.3-2.8-8.1-2.9-12-1.5c-0.8,0.3-0.4,1.5,0.3,1.2c3.1-1.1,6.8-1.3,9.8,0.5c2.5,1.5,4.3,4.5,3.9,7.4
			c-0.4,2.6-2.8,4.7-5.4,4.8c-2.6,0-4.3-2.1-4.8-4.4c-0.6-2.8-0.2-5.8,0.5-8.6C168.6,235.2,167.4,234.9,167.2,235.6L167.2,235.6z"/>
	</g>
</g>
<g>
	<g>
		<path class="st1" d="M367.6,261.4c0.1,5.3,0.2,10.7,0.2,16c0,0.4,0.4,0.7,0.8,0.6c6-1.1,13.2-4.3,13.4-11.4
			c0.1-3.2-1.8-5.7-4.4-7.4c-2.7-1.7-6.5-3.2-9.7-1.9c-2.6,1-4.4,4.4-2.7,6.9c0.4,0.7,1.5,0,1.1-0.6c-1.4-2.1,0.5-4.7,2.6-5.3
			c2.8-0.8,5.9,0.6,8.2,2.1c2.3,1.5,3.9,3.8,3.6,6.6c-0.2,2.6-1.8,5-4,6.6c-2.5,1.8-5.5,2.7-8.5,3.2c0.3,0.2,0.5,0.4,0.8,0.6
			c-0.1-5.3-0.2-10.7-0.2-16C368.9,260.6,367.6,260.5,367.6,261.4L367.6,261.4z"/>
	</g>
</g>
<g>
	<g>
		<path class="st1" d="M303.5,136.7c5.6,0.1,11.3-0.8,16.5-2.8c0.8-0.3,0.4-1.5-0.3-1.2c-5.2,1.9-10.7,2.8-16.2,2.7
			C302.7,135.4,302.7,136.7,303.5,136.7L303.5,136.7z"/>
	</g>
</g>
<g>
	<g>
		<path class="st1" d="M280,149.8c-0.5,5.4,3.7,9.9,3.2,15.2c-0.1,0.8,1.2,0.8,1.2,0c0.5-5.4-3.6-9.9-3.2-15.2
			C281.3,149,280,149,280,149.8L280,149.8z"/>
	</g>
</g>
<g>
	<g>
		<path class="st1" d="M247.9,184c6.1-1.3,11.5,4.3,17.7,2.6c0.8-0.2,0.5-1.4-0.3-1.2c-3.1,0.8-6.1-0.3-9-1.3
			c-2.8-1-5.7-1.9-8.7-1.2C246.8,183,247.1,184.2,247.9,184L247.9,184z"/>
	</g>
</g>
</svg>
