<?xml version="1.0" encoding="utf-8"?>
<!-- Generator: Adobe Illustrator 26.0.3, SVG Export Plug-In . SVG Version: 6.00 Build 0)  -->
<svg version="1.1" id="Layer_1" xmlns="http://www.w3.org/2000/svg" xmlns:xlink="http://www.w3.org/1999/xlink" x="0px" y="0px"
	 viewBox="0 0 553.9 475.3" style="enable-background:new 0 0 553.9 475.3;" xml:space="preserve">
<style type="text/css">
	.st0{fill:#CA8B0C;}
	.st1{fill:#FFFFFF;}
</style>
<rect class="st0" width="553.9" height="475.3"/>
<g>
	<g>
		<path class="st1" d="M199.25,124.76c22.25-6.57,41.22-21.59,64.22-25.94c5.53-1.05,11.27-1.4,16.87-0.7
			c5.49,0.69,10.66,2.58,15.53,5.15c5.4,2.86,10.54,6.24,15.74,9.45c5.38,3.32,10.75,6.64,16.13,9.96c1.26,0.78,2.53,1.72,4.06,1.78
			c1.64,0.07,2.96-0.75,4.11-1.84c2.13-2,4-4.34,5.67-6.73c1.71-2.46,3.45-5.25,1.95-8.25c-1.11-2.22-3.55-3.83-5.44-5.34
			c-8.49-6.78-17.98-12.13-28.14-15.97c-10.07-3.8-20.75-5.99-31.5-6.49c-12.21-0.56-24.4,1.43-36.43,3.26
			c-6.14,0.93-12.23,2.06-18.2,3.76c-5.84,1.66-11.54,3.74-17.16,6.01c-2.83,1.14-5.65,2.33-8.46,3.54
			c-2.58,1.11-5.52,2.03-7.79,3.73c-2.49,1.87-3.13,4.53-3.34,7.5c-0.22,3.07-0.34,6.14-0.39,9.21c-0.06,3.07-0.04,6.15,0.05,9.22
			c0.04,1.56,1.57,2.93,3.16,2.41c3.4-1.1,6.81-2.2,10.21-3.3c3.05-0.99,1.74-5.82-1.33-4.82c-3.4,1.1-6.81,2.2-10.21,3.3
			c1.05,0.8,2.11,1.61,3.16,2.41c-0.16-5.99-0.07-11.98,0.32-17.95c0.06-1,0.05-2.14,0.51-3.06c0.48-0.96,1.58-1.44,2.5-1.87
			c2.58-1.21,5.22-2.29,7.84-3.4c10.67-4.53,21.57-8.48,33-10.62c5.92-1.11,11.89-1.92,17.85-2.75c5.82-0.81,11.68-1.48,17.56-1.64
			c10.22-0.28,20.41,1.09,30.22,3.99c9.71,2.87,18.95,7.23,27.34,12.91c2.06,1.39,4.08,2.86,6.02,4.43c0.97,0.78,1.94,1.58,2.87,2.4
			c0.36,0.31,0.76,0.62,1.05,1c0.09,0.12,0.21,0.24,0.27,0.37c0.1,0.22,0.09,0.5,0.09,0.24c-0.03,1.04-1.33,2.44-1.9,3.26
			c-0.81,1.16-1.68,2.27-2.62,3.33c-0.79,0.9-1.62,1.74-2.47,2.58c-0.19,0.19-0.63,0.23-0.2,0.21c0.22-0.01,0.42,0.25-0.13-0.14
			c-0.63-0.46-1.35-0.83-2.02-1.24c-5.23-3.23-10.47-6.47-15.7-9.7c-4.95-3.05-9.83-6.25-14.94-9.02c-4.9-2.66-10.09-4.8-15.59-5.78
			c-5.35-0.96-10.79-1.05-16.18-0.4c-11.13,1.33-21.6,5.27-31.69,10c-10.04,4.71-19.75,10.16-30.12,14.13
			c-2.53,0.97-5.09,1.84-7.69,2.61C194.84,120.85,196.16,125.67,199.25,124.76L199.25,124.76z"/>
	</g>
</g>
<g>
	<g>
		<path class="st1" d="M197.47,96.87c1.32-13.66,5.35-27.09,13.23-38.46c4.24-6.11,9.62-10.85,16.42-13.92
			c1.97-0.89,4.18-1.64,6.35-2.22c0.8-0.21,1.61-0.41,2.42-0.58c0.51-0.1,1.01-0.19,1.52-0.28c0.14-0.02,0.27-0.04,0.41-0.06
			c-0.02,0-0.46,0.06-0.17,0.03c0.25-0.03,0.51-0.06,0.76-0.08c3.62-0.31,7.24,0.42,10.85,0.69c6.86,0.52,13.74,0.1,20.59-0.49
			c5.9-0.51,12.04-0.21,17.76,1.4c1.87,0.53,3.66,1.22,5.37,2.16c0.85,0.47,1.67,0.98,2.46,1.54c0.29,0.21,0.59,0.42,0.87,0.64
			c0.24,0.18-0.05-0.03-0.08-0.06c0.12,0.1,0.24,0.19,0.36,0.3c1.46,1.26,2.65,2.82,3.99,4.2c2.67,2.74,5.69,4.88,8.7,7.22
			c1.44,1.12,2.87,2.35,3.99,3.8c1.19,1.55,2,3.38,2.66,5.21c2.55,7.12,4.46,14.51,6.47,21.79c0.6,2.17,1.19,4.33,1.78,6.5
			c0.84,3.1,5.67,1.79,4.82-1.33c-2.18-8.02-4.37-16.04-6.84-23.97c-1.24-4-2.49-8.08-5.11-11.42c-2.43-3.1-5.78-5.19-8.85-7.59
			c-2.48-1.94-4.61-4.26-6.71-6.6c-1.72-1.91-3.94-3.43-6.19-4.64c-6.34-3.41-14.12-4.49-21.27-4.39c-3.01,0.04-6,0.44-9,0.64
			c-4.01,0.28-8.04,0.42-12.06,0.3c-4.21-0.13-8.39-0.95-12.6-0.97c-4.03-0.02-8.1,1-11.87,2.35c-7.09,2.54-13.56,6.67-18.44,12.46
			c-9.84,11.67-15.07,26.41-17.09,41.4c-0.2,1.47-0.37,2.95-0.51,4.42c-0.13,1.35,1.24,2.5,2.5,2.5
			C196.43,99.37,197.34,98.22,197.47,96.87L197.47,96.87z"/>
	</g>
</g>
<g>
	<g>
		<path class="st1" d="M167.84,136.03c24.25,1.94,48.43-1.65,72.66-2.35c3.09-0.09,6.18-0.13,9.27-0.11
			c1.46,0.01,2.93,0.04,4.39,0.08c0.86,0.02,2.5-0.21,3.23,0.38c0.61,0.5,0.79,1.68,0.99,2.38c0.45,1.54,0.89,3.09,1.32,4.64
			c0.81,2.94,1.57,5.9,2.28,8.87c0.68,2.81,1.31,5.63,1.9,8.46c0.62,2.97,1.35,5.98,1.72,8.99c0.03,0.21-0.04,0.7,0.05,0.88
			c-0.17-0.36,0.67-0.15,0.12-0.25c-0.22-0.04-0.69,0.14-0.91,0.17c-1.55,0.25-3.11,0.45-4.67,0.67c-3.03,0.43-6.06,0.87-9.09,1.3
			c-13.76,1.97-27.51,3.94-41.27,5.91c-1.34,0.19-2.07,1.89-1.75,3.08c0.39,1.44,1.73,1.94,3.08,1.75
			c12.94-1.85,25.87-3.7,38.81-5.56c3.28-0.47,6.55-0.94,9.83-1.41c1.47-0.21,2.95-0.42,4.42-0.63c1.58-0.23,3.23-0.29,4.56-1.25
			c2.75-1.98,1.72-5.56,1.21-8.35c-0.58-3.16-1.21-6.31-1.9-9.45c-1.34-6.12-2.88-12.19-4.62-18.21c-0.82-2.84-1.69-5.78-4.77-6.86
			c-1.28-0.45-2.71-0.44-4.05-0.48c-1.71-0.05-3.42-0.08-5.12-0.09c-12.79-0.08-25.56,0.94-38.31,1.82
			c-14.43,1-28.93,1.8-43.38,0.64c-1.35-0.11-2.5,1.23-2.5,2.5C165.34,134.98,166.49,135.93,167.84,136.03L167.84,136.03z"/>
	</g>
</g>
<g>
	<g>
		<path class="st1" d="M134.49,157.93c12.42,0.86,24.96-0.17,37.07-3.05c5.36-1.27,11.21-3.98,16.78-2.54
			c5.09,1.32,9.19,5.07,13.13,8.35c2.75,2.29,5.51,4.58,8.26,6.86c1.38,1.14,2.75,2.29,4.13,3.43c0.45,0.38,2.39,1.66,2.2,2.33
			c0.58-0.58,1.16-1.16,1.75-1.75c-10.28,2.2-20.12-4.43-28.2-9.89c-0.84,1.44-1.68,2.88-2.52,4.32
			c6.24,4.17,12.48,8.34,18.73,12.51c0-1.44,0-2.88,0-4.32c-8,6.06-18.98,2.74-26.33-2.76c-0.84,1.44-1.68,2.88-2.52,4.32
			c6.9,3.2,13.44,7.12,19.51,11.7c-0.17-1.31-0.34-2.62-0.51-3.93c-3.75,2.99-9.58,1.46-13.43-0.48c-5.27-2.65-9.93-6.39-15.69-8.01
			c-2.09-0.59-3.93,1.8-2.82,3.67c3.01,5.08,8.29,7.84,12.5,11.64c1.92,1.74,3.29,3.4,3.84,5.79c0.76,3.34-1.53,7.22-3.18,10.24
			c-2.37,4.36-4.88,8.64-7.52,12.85c-1.72,2.73,2.61,5.25,4.32,2.52c2.47-3.93,4.83-7.93,7.06-12c2.09-3.81,4.5-7.9,4.44-12.39
			c-0.09-6.76-5.6-10.86-10.49-14.57c-2.48-1.88-5.08-3.95-6.66-6.6c-0.94,1.22-1.88,2.45-2.82,3.67
			c6.12,1.72,10.99,6.17,16.83,8.56c5.65,2.31,12.19,2.6,17.15-1.36c1.39-1.11,0.63-3.07-0.51-3.93c-6.08-4.58-12.61-8.5-19.52-11.7
			c-2.95-1.37-5.09,2.39-2.52,4.32c8.65,6.48,22.06,9.81,31.37,2.76c1.52-1.15,1.68-3.2,0-4.32c-6.24-4.17-12.48-8.34-18.73-12.51
			c-2.69-1.79-5.17,2.52-2.52,4.32c9.39,6.35,20.24,12.93,32.05,10.4c0.85-0.18,1.51-0.94,1.75-1.75c1.02-3.49-1.85-5.85-4.23-7.82
			c-2.63-2.18-5.26-4.37-7.88-6.55c-4.61-3.83-9.16-8.24-14.54-10.97c-2.73-1.39-5.67-2.29-8.74-2.36c-3.32-0.08-6.59,0.8-9.76,1.69
			c-6.2,1.73-12.49,3.08-18.89,3.82c-7.42,0.85-14.9,1.01-22.34,0.49c-1.35-0.09-2.5,1.22-2.5,2.5
			C131.99,156.87,133.13,157.84,134.49,157.93L134.49,157.93z"/>
	</g>
</g>
<g>
	<g>
		<path class="st1" d="M150.04,151.07c0.48-4.49,1.6-9.01,3.85-12.95c2.05-3.59,5.06-6.48,8.59-8.61
			c8.19-4.96,18.03-5.48,27.33-4.55c2.2,0.22,4.73,0.37,6.66,1.57c1.07,0.67,2.21,2.45,1.34,3.43c-2.13,2.4,1.4,5.95,3.54,3.54
			c1.8-2.04,2.15-4.73,1.13-7.23c-1.06-2.6-3.25-4.21-5.85-5.13c-2.59-0.91-5.5-1.07-8.21-1.3c-2.94-0.25-5.91-0.34-8.86-0.18
			c-10.83,0.56-21.78,4.54-28.4,13.52c-3.83,5.19-5.44,11.59-6.12,17.91c-0.14,1.34,1.25,2.5,2.5,2.5
			C149.02,153.57,149.9,152.42,150.04,151.07L150.04,151.07z"/>
	</g>
</g>
<g>
	<g>
		<path class="st1" d="M131.04,155.36c0.93,5.9-0.01,11.95-0.51,17.85c-0.52,6.05-0.52,12.12,1.42,17.94
			c1.87,5.58,4.99,10.65,6.86,16.22c1.7,5.07,2.19,10.41,1.62,15.72c-0.63,5.88-2.83,11.55-6.15,16.43
			c-1.81,2.67,2.52,5.17,4.32,2.52c6.43-9.45,8.57-21.58,5.97-32.69c-1.37-5.85-4.39-11.05-6.68-16.55
			c-1.12-2.67-2.03-5.47-2.42-8.35c-0.41-3.04-0.31-6.15-0.1-9.21c0.49-7.1,1.61-14.1,0.49-21.21c-0.21-1.33-1.88-2.07-3.08-1.75
			C131.37,152.67,130.83,154.02,131.04,155.36L131.04,155.36z"/>
	</g>
</g>
<g>
	<g>
		<path class="st1" d="M137.14,243c4.16-0.1,8.33,0.02,12.48,0.37c0.15,0.01,1.71,0.13,1.71,0.16c-0.27-0.26-0.53-0.51-0.8-0.77
			c-0.12-0.13-0.12,0.03,0.01,0.47c0.04,0.98,0.09,1.95,0.12,2.93c0.07,2.12,0.1,4.24,0.08,6.36c-0.08,8.26-0.82,16.5-2.25,24.64
			c-0.23,1.33,0.36,2.69,1.75,3.08c1.21,0.33,2.84-0.41,3.08-1.75c1.65-9.38,2.5-18.89,2.43-28.41c-0.02-2.28-0.08-4.57-0.2-6.85
			c-0.06-1.15-0.14-2.3-0.91-3.23c-0.86-1.04-2.01-1.33-3.31-1.48c-4.7-0.52-9.46-0.64-14.19-0.53
			C133.93,238.07,133.91,243.07,137.14,243L137.14,243z"/>
	</g>
</g>
<g>
	<g>
		<path class="st1" d="M154.91,240.92c7.38-7.29,16.49-12.75,26.43-15.74c1.25-0.38,2.51-0.72,3.78-1.02
			c0.26-0.06,1.48-0.16,1.56-0.34c0.02,0,0.04,0,0.06,0c0.11-0.07,0.05-0.14-0.18-0.21c-0.23-0.18-0.29-0.23-0.18-0.15
			c0.07,0.18,0.13,0.37,0.2,0.56c1.06,3.02,2.1,6.04,3.15,9.07c2.04,5.89,4.09,11.78,6.13,17.67c2.19,6.3,4.75,12.75,4.16,19.54
			c-0.12,1.35,1.23,2.5,2.5,2.5c1.45,0,2.38-1.15,2.5-2.5c0.59-6.73-1.68-13.21-3.85-19.47c-2.26-6.51-4.52-13.02-6.78-19.53
			c-1.08-3.1-2.05-6.26-3.25-9.32c-0.56-1.43-1.48-2.59-3.03-3c-1.54-0.41-3.21,0.1-4.71,0.46c-5.67,1.38-11.19,3.53-16.33,6.3
			c-5.75,3.1-11.05,7.05-15.69,11.64C149.08,239.65,152.62,243.19,154.91,240.92L154.91,240.92z"/>
	</g>
</g>
<g>
	<g>
		<path class="st1" d="M190.99,219.56c-0.46-5.46-1.12-11.63,1.35-16.74c1.31-2.72,3.03-5.13,4.12-7.97
			c1.04-2.71,1.69-5.58,2.91-8.22c0.57-1.23,0.35-2.69-0.9-3.42c-1.08-0.63-2.85-0.33-3.42,0.9c-1.32,2.85-2.12,5.86-3.19,8.8
			c-1.06,2.92-2.98,5.34-4.2,8.17c-2.53,5.86-2.2,12.26-1.68,18.48c0.11,1.35,1.07,2.5,2.5,2.5
			C189.76,222.06,191.1,220.91,190.99,219.56L190.99,219.56z"/>
	</g>
</g>
<g>
	<g>
		<path class="st1" d="M299.61,160.03c-6.48-12.69-16.48-23.38-22.07-36.56c-0.69-1.62-1.28-3.28-1.8-4.96
			c-0.19-0.61-0.67-1.77-0.52-2.27c0.09-0.32,0.71-0.71,1.12-0.91c2.61-1.3,5.85-0.17,8.05,1.44c2.72,2.01,4.42,5.2,5.9,8.15
			c1.76,3.48,3.45,6.98,5.36,10.38c4.4,7.8,9.52,15.16,15.23,22.06c0.86,1.04,2.64,0.89,3.54,0c1.03-1.03,0.86-2.49,0-3.54
			c-5.43-6.57-10.26-13.62-14.45-21.05c-2.02-3.58-3.77-7.29-5.65-10.94c-1.84-3.58-4.09-7.02-7.41-9.39
			c-3.05-2.17-7.13-3.26-10.81-2.33c-1.85,0.47-3.72,1.49-4.84,3.06c-1.36,1.91-1.08,4.14-0.45,6.26
			c2.22,7.51,6.16,14.37,10.43,20.88c4.81,7.33,10.06,14.39,14.06,22.22C296.75,165.42,301.07,162.9,299.61,160.03L299.61,160.03z"
			/>
	</g>
</g>
<g>
	<g>
		<path class="st1" d="M271,170.25c11.19,0,21.88-3.5,32.47-6.7c5.34-1.61,10.71-3.15,16.21-4.1c0.92-0.16,2.2-0.56,3.14-0.38
			c0.79,0.15,1.01,1.1,1.25,1.79c0.9,2.57,1.48,5.22,2.57,7.73c2.07,4.75,6.23,7.49,10.28,10.41c3.76,2.71,6.64,6.16,9.1,10.05
			c2.56,4.05,4.74,8.33,7.35,12.34c2.92,4.48,6.49,8.17,10.46,11.72c4.54,4.08,8.5,8.42,11.82,13.57
			c3.27,5.07,5.98,10.46,8.69,15.84c0.5-1.22,1-2.45,1.49-3.67c-13.35,4.62-26.04,11.03-37.62,19.12c1.22,0.5,2.45,1,3.67,1.49
			c-4.29-11.49-10.54-22.12-18.55-31.41c-4.03-4.67-8.77-8.61-12.91-13.16c-3.72-4.08-6.13-9.01-6.97-14.48
			c-0.89-5.87,0.15-12.03,3.04-17.23c0.97-1.74-0.28-3.63-2.16-3.76c-4.86-0.35-9.8,1.55-13.25,4.97c-1.77,1.75-4.03,4.53-2.51,7.1
			c0.72,1.22,2.08,1.75,3.28,2.36c1.3,0.67,2.61,1.33,3.91,2c2.86,1.46,5.39-2.85,2.52-4.32c-0.96-0.49-1.92-0.98-2.88-1.47
			c-0.71-0.37-1.7-1.16-2.47-1.26c-0.64-0.43-0.61-0.06,0.08,1.13c0.13-0.22,0.26-0.43,0.41-0.64c0.17-0.24,0.35-0.46,0.54-0.68
			c0.51-0.58,1.06-1.13,1.67-1.6c2.48-1.95,5.57-2.81,8.69-2.59c-0.72-1.25-1.44-2.51-2.16-3.76c-5.67,10.21-5.33,23.54,1.19,33.3
			c3.55,5.32,8.66,9.29,13.04,13.88c4.22,4.42,8.01,9.23,11.32,14.37c3.76,5.84,6.91,12.07,9.34,18.58c0.52,1.39,2.24,2.5,3.67,1.49
			c11.23-7.85,23.48-14.14,36.42-18.62c1.59-0.55,2.25-2.17,1.49-3.67c-4.91-9.77-10-19.69-17.96-27.37
			c-3.91-3.77-8.27-7.09-11.47-11.53c-2.88-3.99-5.14-8.38-7.67-12.6c-2.52-4.21-5.38-8.37-9.16-11.56c-3.57-3-8.38-5.18-10.72-9.39
			c-1.24-2.24-1.75-4.81-2.52-7.23c-0.85-2.63-2.02-5.34-4.96-6.08c-1.35-0.34-2.74-0.09-4.09,0.1c-1.39,0.21-2.78,0.45-4.16,0.73
			c-2.77,0.56-5.51,1.26-8.23,2.01c-12.07,3.36-24.03,8.15-36.73,8.15C267.79,165.25,267.78,170.25,271,170.25L271,170.25z"/>
	</g>
</g>
<g>
	<g>
		<path class="st1" d="M260.54,172.69c0.4,1.9-0.09,3.92-0.18,5.83c-0.1,2.16,0.26,4.35,1.56,6.13c1.37,1.88,3.37,3.3,5.21,4.69
			c1.88,1.43,3.86,2.8,5.95,3.92c2.05,1.1,4.77,1.53,6.29-0.67c1.43-2.07,0.75-4.77,0.21-7.04c-0.38-1.59-0.65-3.04,0.48-4.36
			c1.1-1.29,2.71-2.09,4.22-2.82c4.93-2.37,10-4.47,15.08-6.51c1.25-0.5,2.13-1.67,1.75-3.08c-0.36-1.31-1.77-2.11-3.08-1.75
			c-4.97,1.37-9.55,4.09-13.13,7.8c-3.64,3.77-7.14,9.24-7.01,14.67c0.14,5.9,4.95,9.12,9.96,10.98c1.14,0.42,2.38,0.97,3.61,0.98
			c1.84,0.02,3.28-1.19,3.64-2.97c0.26-1.25,0.02-2.56,0.19-3.83c0.18-1.25,0.54-2.52,1.05-3.67c2.39-5.41,7.9-8.52,13.73-8.17
			c3.21,0.19,3.2-4.81,0-5c-5.38-0.32-10.9,1.76-14.64,5.67c-1.88,1.97-3.27,4.31-4.19,6.87c-0.46,1.29-0.74,2.61-0.91,3.97
			c-0.08,0.66-0.14,1.33-0.15,2c-0.01,0.51,0.1,1.02-0.08,1.49c0.21-0.37,0.43-0.74,0.64-1.1c0.94-0.11,1.09-0.23,0.45-0.34
			c-0.22-0.07-0.45-0.15-0.67-0.22c-0.34-0.11-0.68-0.23-1.01-0.35c-0.7-0.25-1.39-0.52-2.06-0.85c-1.26-0.61-2.5-1.33-3.41-2.4
			c-2.22-2.61-0.82-6.35,0.61-8.99c3.09-5.72,8.45-9.97,14.71-11.7c-0.44-1.61-0.89-3.21-1.33-4.82c-4.3,1.73-8.57,3.53-12.79,5.43
			c-3.4,1.52-7.12,2.97-9.42,6.07c-1.15,1.55-1.72,3.47-1.57,5.39c0.08,1.07,0.31,2.12,0.57,3.16c0.03,0.13,0.62,2.91,0.4,2.89
			c-0.05-0.01,0.96-0.81,0.92-0.73c0.09-0.19,0.44,0.24-0.19-0.13c-0.37-0.22-0.76-0.42-1.13-0.64c-0.92-0.55-1.83-1.12-2.72-1.72
			c-1.76-1.19-3.47-2.47-5.04-3.9c-1.54-1.39-1.79-2.71-1.66-4.74c0.15-2.3,0.45-4.48-0.03-6.77c-0.28-1.32-1.83-2.09-3.08-1.75
			C260.91,169.99,260.26,171.36,260.54,172.69L260.54,172.69z"/>
	</g>
</g>
<g>
	<g>
		<path class="st1" d="M330.67,122.64c-0.02,4.91,1.47,9.57,3.06,14.16c1.51,4.38,2.94,8.79,4.04,13.29
			c2.15,8.87,2.95,18.17,0,26.96c-1.03,3.06,3.8,4.37,4.82,1.33c3.08-9.16,2.42-18.97,0.32-28.26c-1.06-4.67-2.49-9.25-4.05-13.77
			c-1.53-4.45-3.2-8.94-3.18-13.71C335.68,119.42,330.68,119.42,330.67,122.64L330.67,122.64z"/>
	</g>
</g>
<g>
	<g>
		<path class="st1" d="M245.52,220.45c9.73,3.95,19.47,7.88,29.22,11.77c4.6,1.83,9.5,4.55,14.48,2.5c2.29-0.94,4.3-2.46,6.35-3.82
			c2.2-1.47,4.39-2.93,6.59-4.4c4.94-3.3,9.88-6.6,14.83-9.9c2.66-1.78,0.16-6.11-2.52-4.32c-4.26,2.84-8.51,5.68-12.77,8.53
			c-4.11,2.75-8.17,5.61-12.36,8.24c-1.82,1.14-3.5,1.79-5.65,1.24c-2.37-0.61-4.65-1.7-6.92-2.61c-4.65-1.85-9.29-3.71-13.94-5.58
			c-5.33-2.14-10.65-4.3-15.97-6.46c-1.25-0.51-2.75,0.55-3.08,1.75C243.38,218.81,244.26,219.94,245.52,220.45L245.52,220.45z"/>
	</g>
</g>
<g>
	<g>
		<path class="st1" d="M361.73,206.23c8.52-0.49,17.06-0.45,25.58,0.14c4.18,0.29,8.36,0.7,12.52,1.25
			c3.32,0.44,6.85,0.84,9.96,2.18c6.88,2.98,7.5,11.49,8.95,17.91c1.91,8.44,3.82,16.87,5.73,25.31c2.17,9.57,4.33,19.14,6.5,28.71
			c0.71,3.14,5.53,1.81,4.82-1.33c-3.98-17.6-7.97-35.2-11.95-52.8c-1.66-7.32-2.54-16.16-9.21-20.81
			c-2.94-2.05-6.56-2.93-10.04-3.49c-4.35-0.71-8.75-1.21-13.14-1.61c-9.88-0.88-19.81-1.03-29.71-0.46
			C358.53,201.41,358.51,206.41,361.73,206.23L361.73,206.23z"/>
	</g>
</g>
<g>
	<g>
		<path class="st1" d="M151.81,264.83c4.06,0.14,7.88-1.49,11.63-2.85c3.9-1.41,7.79-2.86,11.67-4.35
			c7.8-2.99,15.55-6.13,23.24-9.39c1.24-0.53,1.52-2.36,0.9-3.42c-0.75-1.29-2.17-1.43-3.42-0.9c-7.29,3.1-14.65,6.06-22.05,8.89
			c-3.65,1.4-7.31,2.76-10.98,4.1c-3.49,1.27-7.2,3.05-10.99,2.92C148.59,259.72,148.59,264.72,151.81,264.83L151.81,264.83z"/>
	</g>
</g>
<g>
	<g>
		<path class="st1" d="M132.25,241.22c-4.38,13-8.6,26.06-12.65,39.16c-3.91,12.65-7.75,25.35-10.34,38.34
			c-2.53,12.7-4.34,26.17-2.58,39.09c1.78,13.06,9.17,24.42,15.35,35.79c1.44,2.64,2.7,5.52,4.54,7.91
			c1.94,2.51,4.61,3.56,7.76,3.27c6.36-0.58,12.82-2.05,18.72-4.51c5.88-2.46,11.09-6.04,16.27-9.71c4.9-3.47,9.81-6.96,14.37-10.87
			c4.55-3.9,8.68-8.29,12.01-13.29c3.19-4.78,5.6-10.07,7.46-15.5c3.72-10.86,5.19-22.39,6.27-33.77c2.21-23.19,1.94-47.64-7.9-69.2
			c-1.16-2.54-2.46-5.01-3.88-7.42c-1.64-2.77-5.96-0.26-4.32,2.52c11.5,19.46,13.17,42.69,11.83,64.77
			c-0.66,10.98-1.76,22.09-4.27,32.81c-2.47,10.55-6.61,20.78-13.92,28.93c-3.81,4.25-8.21,7.94-12.77,11.36
			c-4.72,3.53-9.53,7.03-14.5,10.19c-5.15,3.28-10.58,5.69-16.53,7.12c-2.89,0.7-5.87,1.29-8.84,1.56c-1.03,0.09-2.16,0.2-3.03-0.47
			c-0.83-0.64-1.37-1.68-1.87-2.57c-3.12-5.58-6.12-11.23-9.17-16.84c-2.87-5.29-5.73-10.64-7.37-16.46
			c-1.7-6.05-2-12.34-1.81-18.59c0.19-6.27,0.85-12.52,1.88-18.71c2.08-12.55,5.5-24.83,9.18-37c3.76-12.44,7.7-24.83,11.78-37.18
			c1.04-3.14,2.08-6.27,3.14-9.41C138.1,239.5,133.27,238.19,132.25,241.22L132.25,241.22z"/>
	</g>
</g>
<g>
	<g>
		<path class="st1" d="M347.38,259.17c0.02,11.97,3.84,23.86,10.91,33.52c0.73,1,2.24,1.76,3.42,0.9
			c6.98-5.14,13.96-10.28,20.95-15.42c3.52-2.59,7.05-5.19,10.57-7.78c1.54-1.14,3.07-2.29,3.45-4.3c0.4-2.14-0.77-4.13-1.67-5.99
			c-2.01-4.17-4.3-8.2-6.82-12.08c-1.14,1.14-2.28,2.28-3.42,3.42c4.9,3.45,9.73,7.02,14.71,10.36c2.34,1.57,4.91,2.24,7.69,1.58
			c2.7-0.64,5.01-2.37,7.15-4.06c2.08-1.65,3.74-3.99,2.71-6.74c-0.97-2.58-3.82-3.89-6.02-5.25c-4.98-3.09-9.88-6.37-14.97-9.26
			c-2.55-1.45-5.48-2.67-8.47-2.44c-2.92,0.22-5.46,1.49-7.13,3.92c-0.77,1.11-0.21,2.77,0.9,3.42c1.24,0.73,2.65,0.22,3.42-0.9
			c1.99-2.89,6.48-0.98,8.76,0.32c4.1,2.34,8.06,4.97,12.07,7.46c1.99,1.23,4.15,2.36,6.02,3.76c0.14,0.1,0.74,0.49,0.76,0.68
			c0.05,0.45-1.42,1.38-1.74,1.63c-1.44,1.11-3.13,2.36-4.97,2.68c-1.94,0.34-3.44-0.97-4.92-2.02c-4.47-3.15-8.95-6.31-13.42-9.46
			c-2.06-1.45-4.74,1.39-3.42,3.42c2.6,4.01,4.96,8.18,7.02,12.5c0.23,0.47,0.48,0.95,0.67,1.43c0.1,0.26,0.18,0.53,0.24,0.8
			c0.01-0.12-0.01-0.15-0.05-0.07c-0.25,0.57-1.39,1.12-1.84,1.46c-2.06,1.52-4.12,3.04-6.18,4.55
			c-8.18,6.02-16.36,12.04-24.54,18.07c1.14,0.3,2.28,0.6,3.42,0.9c-6.59-8.99-10.21-19.84-10.23-31
			C352.38,255.96,347.38,255.95,347.38,259.17L347.38,259.17z"/>
	</g>
</g>
<g>
	<g>
		<path class="st1" d="M412.87,258.46c12.42,16.76,26.44,32.15,41.8,46.26c3.56,3.27,7.33,6.77,8.69,11.56
			c0.88,3.09,5.7,1.78,4.82-1.33c-1.3-4.58-4.3-8.3-7.65-11.58c-3.6-3.52-7.4-6.84-11-10.36c-7.52-7.36-14.68-15.11-21.42-23.19
			c-3.78-4.52-7.42-9.15-10.92-13.89c-0.8-1.08-2.17-1.63-3.42-0.9C412.7,255.66,412.06,257.37,412.87,258.46L412.87,258.46z"/>
	</g>
</g>
<g>
	<g>
		<path class="st1" d="M358.71,289.6c0.99,14.74,4.12,29.57,10.57,42.93c4.05,8.39,9.67,15.58,16.25,22.12
			c6.54,6.5,13.63,12.42,21.23,17.64c8.03,5.52,16.06,11.34,25.16,14.97c4.08,1.63,8.24,2.6,12.63,2.84
			c5.04,0.28,10.41,0.33,15.37-0.82c7.28-1.69,13.97-6.36,16.62-13.49c1.61-4.33,2.41-8.97,3.39-13.47
			c0.9-4.14,1.82-8.28,2.52-12.45c1.17-6.98,1.3-14.35,0.38-21.37c-0.57-4.34-1.67-8.66-3.91-12.46c-2.53-4.28-6.39-7.47-10.99-9.32
			c-1.89-0.76-3.87-1.25-5.88-1.53c-1.34-0.19-2.69,0.33-3.08,1.75c-0.32,1.17,0.4,2.89,1.75,3.08c4.21,0.6,8.25,2.12,11.3,5.18
			c2.66,2.68,4.22,6.15,5.12,9.78c0.94,3.79,1.18,7.7,1.21,11.59c0.02,3.08,0.02,6.21-0.32,9.28c-0.03,0.3-0.07,0.6-0.11,0.9
			c0.07-0.5-0.08,0.53-0.1,0.65c-0.13,0.83-0.27,1.67-0.42,2.5c-0.32,1.8-0.69,3.59-1.06,5.37c-1.02,4.92-2.02,9.87-3.27,14.74
			c-0.41,1.62-0.88,3.22-1.46,4.78c-0.05,0.14-0.11,0.28-0.17,0.41c0.19-0.47,0.01-0.04-0.04,0.08c-0.12,0.23-0.22,0.47-0.35,0.7
			c-0.26,0.5-0.57,0.97-0.88,1.45c-0.06,0.09-0.13,0.18-0.2,0.28c0.04-0.05,0.36-0.44,0.08-0.1c-0.15,0.18-0.29,0.35-0.44,0.53
			c-0.78,0.89-1.65,1.73-2.59,2.46c-1.54,1.19-3.32,2.18-5.14,2.88c-4.13,1.57-7.49,1.69-11.96,1.75c-2.8,0.04-5.66,0-8.45-0.35
			c0.59,0.07-0.42-0.09-0.54-0.11c-0.42-0.08-0.84-0.18-1.26-0.28c-1.29-0.31-2.57-0.69-3.84-1.11c-8.52-2.79-15.95-8.23-23.31-13.2
			c-6.81-4.61-13.28-9.52-19.33-15.12c-6.56-6.07-12.65-12.53-17.1-20.33c-4.16-7.29-7.02-15.23-9.03-23.35
			c-0.87-3.54-1.58-7.12-2.14-10.72c-0.41-2.65-0.7-5.04-0.96-7.97c-0.09-1.02-0.17-2.05-0.24-3.07c-0.09-1.35-1.08-2.5-2.5-2.5
			C359.92,287.1,358.61,288.24,358.71,289.6L358.71,289.6z"/>
	</g>
</g>
<g>
	<g>
		<path class="st1" d="M282.35,234.46c-2.28,31.55,0.1,63.18,3.36,94.58c3.27,31.52,7.41,63,8.61,94.7
			c0.33,8.8,0.25,17.59,0.44,26.39c0.19,8.69,0.83,17.44,3.1,25.86c0.84,3.1,5.66,1.79,4.82-1.33c-4.03-14.95-2.78-30.75-3.2-46.07
			c-0.44-15.68-1.65-31.32-3.16-46.93c-3.04-31.36-7.32-62.62-9.08-94.09c-0.99-17.68-1.16-35.42,0.11-53.1
			c0.1-1.35-1.22-2.5-2.5-2.5C283.42,231.96,282.45,233.1,282.35,234.46L282.35,234.46z"/>
	</g>
</g>
<g>
	<g>
		<path class="st1" d="M419.19,475.3c0.15-13.98,0.3-27.96,0.45-41.93c0.07-6.71,0.27-13.44-0.09-20.15
			c-0.36-6.78-1.61-13.4-3.01-20.03c-1.51-7.16-2.99-14.34-2.66-21.7c0.14-3.22-4.86-3.21-5,0c-0.59,13.37,4.49,26.08,5.52,39.29
			c0.52,6.68,0.34,13.4,0.27,20.09c-0.07,6.99-0.15,13.98-0.22,20.97c-0.08,7.82-0.17,15.64-0.25,23.46
			C414.15,478.52,419.15,478.53,419.19,475.3L419.19,475.3z"/>
	</g>
</g>
<g>
	<g>
		<path class="st1" d="M139.87,475.3c-0.6-9.62-1.2-19.32-0.15-28.94c0.51-4.71,1.51-9.36,3.03-13.85
			c1.54-4.54,3.53-8.92,4.88-13.53c1.57-5.38,2.2-11.05,1.89-16.64c-0.18-3.2-5.18-3.22-5,0c0.27,4.87-0.18,9.7-1.46,14.4
			c-1.25,4.64-3.23,9.04-4.83,13.56c-3.23,9.18-4.15,18.94-4.08,28.62c0.04,5.46,0.37,10.92,0.72,16.37
			C135.07,478.5,140.07,478.52,139.87,475.3L139.87,475.3z"/>
	</g>
</g>
<g>
	<g>
		<path class="st1" d="M294.12,121.14c3.22,0,3.22-5,0-5C290.91,116.14,290.9,121.14,294.12,121.14L294.12,121.14z"/>
	</g>
</g>
<g>
	<g>
		<path class="st1" d="M294.83,121.27c6.57-1.27,13.39-1.49,20.02-0.56c1.34,0.19,2.69-0.33,3.08-1.75c0.32-1.17-0.4-2.89-1.75-3.08
			c-7.58-1.06-15.16-0.9-22.68,0.56c-1.33,0.26-2.08,1.85-1.75,3.08C292.14,120.91,293.5,121.53,294.83,121.27L294.83,121.27z"/>
	</g>
</g>
<g>
	<g>
		<path class="st1" d="M261.21,118.91c-13.02-0.79-26.1,0.19-38.87,2.81c-1.32,0.27-2.09,1.84-1.75,3.08
			c0.38,1.37,1.75,2.02,3.08,1.75c12.34-2.54,24.97-3.39,37.54-2.63C264.42,124.1,264.41,119.1,261.21,118.91L261.21,118.91z"/>
	</g>
</g>
<g>
	<g>
		<path class="st1" d="M283.01,207.82c2.61,0.26,5.22,0.08,7.79-0.4c0.59-0.11,1.2-0.65,1.49-1.15c0.31-0.54,0.45-1.33,0.25-1.93
			c-0.2-0.6-0.57-1.19-1.15-1.49c-0.62-0.33-1.23-0.38-1.93-0.25c-0.45,0.08-0.9,0.16-1.36,0.22c0.22-0.03,0.44-0.06,0.66-0.09
			c-1.92,0.25-3.85,0.28-5.77,0.09c-0.6-0.06-1.36,0.32-1.77,0.73c-0.43,0.43-0.76,1.15-0.73,1.77c0.03,0.65,0.24,1.32,0.73,1.77
			C281.76,207.57,282.32,207.76,283.01,207.82L283.01,207.82z"/>
	</g>
</g>
<g>
	<g>
		<path class="st1" d="M229.34,142.15c-3.71,2.91-7.64,6.07-9.6,10.49c-1.84,4.15-2.07,9.31,0.77,13.08
			c3.03,4.02,8.79,5.55,13.55,6.21c5.05,0.7,10.35,0.13,14.75-2.6c3.81-2.36,6.86-6.16,7.58-10.66c0.71-4.37-0.64-8.73-3.28-12.24
			c-5.58-7.41-16.56-11.88-25.51-8.2c-8.46,3.48-13.6,13.71-10.64,22.52c1.02,3.03,5.85,1.73,4.82-1.33
			c-1.84-5.46,0.47-12.01,5.34-15.31c6.02-4.07,14.62-1.89,19.71,2.78c2.29,2.11,4.22,4.86,4.7,8c0.5,3.29-0.92,6.41-3.29,8.64
			c-2.68,2.51-6.3,3.64-9.92,3.71c-3.94,0.07-8.48-0.82-11.91-2.84c-3.38-2-3.72-6.12-2.25-9.49c1.7-3.91,5.46-6.67,8.71-9.22
			c1.06-0.83,0.87-2.66,0-3.54C231.82,141.1,230.4,141.31,229.34,142.15L229.34,142.15z"/>
	</g>
</g>
<g>
	<g>
		<path class="st1" d="M163.78,134.57c0,5.61,0,11.23,0,16.84c0,1.35,1.15,2.5,2.5,2.5c1.36,0,2.5-1.14,2.5-2.5
			c0-5.61,0-11.23,0-16.84c0-1.35-1.15-2.5-2.5-2.5C164.93,132.07,163.78,133.21,163.78,134.57L163.78,134.57z"/>
	</g>
</g>
<g>
	<g>
		<path class="st1" d="M150.41,261.07c-6.87-0.86-13.48-3.42-19.25-7.21c-1.13-0.74-2.76-0.23-3.42,0.9
			c-0.71,1.22-0.23,2.68,0.9,3.42c6.56,4.31,14.01,6.92,21.78,7.9c1.34,0.17,2.5-1.27,2.5-2.5
			C152.91,262.08,151.75,261.24,150.41,261.07L150.41,261.07z"/>
	</g>
</g>
<g>
	<g>
		<path class="st1" d="M224.17,54.92c-2.79,8.49-4.61,17.25-5.51,26.14c-0.1,1.01,0.94,1.88,1.88,1.88c1.1,0,1.77-0.86,1.88-1.88
			c0.87-8.55,2.7-16.98,5.38-25.15C228.54,53.61,224.92,52.63,224.17,54.92L224.17,54.92z"/>
	</g>
</g>
<g>
	<g>
		<path class="st1" d="M201.09,99.91c-0.43,4.15-0.08,8.36,0.98,12.39c0.25,0.95,1.35,1.62,2.31,1.31c0.98-0.32,1.58-1.29,1.31-2.31
			c-0.98-3.74-1.25-7.48-0.84-11.4c0.1-0.98-0.94-1.92-1.88-1.88C201.86,98.08,201.2,98.86,201.09,99.91L201.09,99.91z"/>
	</g>
</g>
<g>
	<g>
		<path class="st1" d="M218.7,91.98c0.16,5.95,2.1,11.82,5.64,16.61c0.6,0.81,1.63,1.22,2.57,0.67c0.8-0.47,1.28-1.75,0.67-2.57
			c-3.16-4.28-4.98-9.39-5.13-14.72C222.38,89.57,218.63,89.56,218.7,91.98L218.7,91.98z"/>
	</g>
</g>
<g>
	<g>
		<path class="st1" d="M241.46,103.86c0-5.61,0-11.23,0-16.84c0-2.41-3.75-2.42-3.75,0c0,5.61,0,11.23,0,16.84
			C237.71,106.28,241.46,106.28,241.46,103.86L241.46,103.86z"/>
	</g>
</g>
<g>
	<g>
		<path class="st1" d="M262.26,94.95c0-2.97,0-5.94,0-8.91c0-0.98-0.86-1.92-1.88-1.88c-1.02,0.05-1.88,0.82-1.88,1.88
			c0,2.97,0,5.94,0,8.91c0,0.98,0.86,1.92,1.88,1.88C261.4,96.78,262.26,96,262.26,94.95L262.26,94.95z"/>
	</g>
</g>
<g>
	<g>
		<path class="st1" d="M289.96,94.95c0.4-3.82,0.05-7.71-0.99-11.4c-0.27-0.94-1.34-1.62-2.31-1.31c-0.96,0.31-1.59,1.3-1.31,2.31
			c0.5,1.77,0.8,3.39,0.93,5.01c0.15,1.8,0.12,3.6-0.07,5.39c-0.1,0.98,0.94,1.92,1.88,1.88C289.19,96.77,289.85,95.99,289.96,94.95
			L289.96,94.95z"/>
	</g>
</g>
<g>
	<g>
		<path class="st1" d="M314.54,110.28c1.02-6.34,0.53-12.82-1.61-18.88c-0.34-0.95-1.28-1.59-2.31-1.31
			c-0.93,0.25-1.65,1.35-1.31,2.31c1.91,5.4,2.52,11.22,1.61,16.89c-0.16,1,0.26,2.02,1.31,2.31
			C313.13,111.84,314.38,111.29,314.54,110.28L314.54,110.28z"/>
	</g>
</g>
<g>
	<g>
		<path class="st1" d="M274.92,41.24c7.58,13.21,14.5,26.78,20.74,40.68c0.42,0.93,1.75,1.13,2.57,0.67
			c0.96-0.54,1.09-1.65,0.67-2.57c-6.24-13.89-13.16-27.47-20.74-40.68C276.96,37.25,273.71,39.14,274.92,41.24L274.92,41.24z"/>
	</g>
</g>
<g>
	<g>
		<path class="st1" d="M252.69,48.4c-0.91,11.09-0.18,22.25,2.08,33.14c0.49,2.36,4.11,1.36,3.62-1
			c-2.19-10.57-2.82-21.39-1.94-32.15C256.63,46,252.88,46.01,252.69,48.4L252.69,48.4z"/>
	</g>
</g>
<g>
	<g>
		<path class="st1" d="M167.18,235.65c-0.73,2.92-1.2,6.09-0.56,9.06c0.58,2.7,2.47,5.11,5.35,5.44c3.08,0.36,6.15-1.83,7.14-4.71
			c1.09-3.18-0.43-6.79-2.9-8.87c-3.32-2.8-8.07-2.92-12.03-1.54c-0.75,0.26-0.43,1.47,0.33,1.21c3.14-1.09,6.8-1.26,9.75,0.48
			c2.51,1.47,4.34,4.49,3.88,7.45c-0.4,2.57-2.82,4.74-5.45,4.78c-2.59,0.04-4.29-2.06-4.84-4.4c-0.65-2.8-0.17-5.83,0.52-8.57
			C168.58,235.21,167.38,234.87,167.18,235.65L167.18,235.65z"/>
	</g>
</g>
<g>
	<g>
		<path class="st1" d="M367.65,261.36c0.08,5.34,0.16,10.69,0.23,16.03c0.01,0.43,0.39,0.68,0.79,0.6
			c5.99-1.14,13.17-4.34,13.38-11.43c0.09-3.18-1.81-5.72-4.4-7.37c-2.72-1.73-6.49-3.16-9.67-1.9c-2.6,1.03-4.37,4.4-2.74,6.94
			c0.43,0.67,1.52,0.05,1.08-0.63c-1.36-2.12,0.49-4.72,2.63-5.32c2.75-0.77,5.92,0.58,8.2,2.07c2.3,1.5,3.89,3.8,3.63,6.64
			c-0.24,2.65-1.84,5.03-3.95,6.57c-2.48,1.82-5.51,2.66-8.48,3.22c0.26,0.2,0.53,0.4,0.79,0.6c-0.08-5.34-0.16-10.69-0.23-16.03
			C368.89,260.56,367.64,260.55,367.65,261.36L367.65,261.36z"/>
	</g>
</g>
<g>
	<g>
		<path class="st1" d="M303.47,136.69c5.64,0.14,11.26-0.79,16.55-2.75c0.75-0.28,0.42-1.49-0.33-1.21
			c-5.2,1.92-10.68,2.84-16.22,2.7C302.67,135.43,302.67,136.68,303.47,136.69L303.47,136.69z"/>
	</g>
</g>
<g>
	<g>
		<path class="st1" d="M279.95,149.81c-0.46,5.35,3.7,9.88,3.17,15.21c-0.08,0.8,1.17,0.79,1.25,0c0.53-5.36-3.63-9.88-3.17-15.21
			C281.27,149.01,280.02,149.01,279.95,149.81L279.95,149.81z"/>
	</g>
</g>
<g>
	<g>
		<path class="st1" d="M247.93,184.05c6.11-1.28,11.54,4.26,17.72,2.58c0.78-0.21,0.45-1.42-0.33-1.21c-3.06,0.83-6.12-0.34-9-1.33
			c-2.82-0.97-5.72-1.87-8.72-1.25C246.81,183,247.15,184.21,247.93,184.05L247.93,184.05z"/>
	</g>
</g>
</svg>
